<svg width="20" height="20" viewBox="0 0 20 20" fill="none" xmlns="http://www.w3.org/2000/svg">
<path d="M9.99984 6.45842C9.48207 6.45842 9.06234 6.87815 9.06234 7.39592C9.06234 7.74109 8.78252 8.02092 8.43734 8.02092C8.09216 8.02092 7.81234 7.74109 7.81234 7.39592C7.81234 6.18779 8.79172 5.20842 9.99984 5.20842C11.208 5.20842 12.1873 6.18779 12.1873 7.39592C12.1873 8.1987 11.7545 8.89973 11.1126 9.27955C10.9486 9.37656 10.8133 9.48248 10.7251 9.58639C10.6395 9.68727 10.6248 9.75308 10.6248 9.79175V10.8334C10.6248 11.1786 10.345 11.4584 9.99984 11.4584C9.65466 11.4584 9.37484 11.1786 9.37484 10.8334V9.79175C9.37484 9.37018 9.5594 9.02811 9.772 8.77759C9.98202 8.5301 10.2439 8.34109 10.4761 8.20374C10.7535 8.03958 10.9373 7.73888 10.9373 7.39592C10.9373 6.87815 10.5176 6.45842 9.99984 6.45842Z" fill="#1DA1F2"/>
<path d="M9.99984 14.1667C10.4601 14.1667 10.8332 13.7937 10.8332 13.3334C10.8332 12.8732 10.4601 12.5001 9.99984 12.5001C9.5396 12.5001 9.1665 12.8732 9.1665 13.3334C9.1665 13.7937 9.5396 14.1667 9.99984 14.1667Z" fill="#1DA1F2"/>
<path fill-rule="evenodd" clip-rule="evenodd" d="M9.95202 1.04175H10.0477C11.9713 1.04174 13.4788 1.04173 14.6551 1.19987C15.859 1.36174 16.8091 1.69952 17.5547 2.4452C18.3004 3.19087 18.6382 4.14089 18.8 5.34484C18.9582 6.52108 18.9582 8.02861 18.9582 9.95227V10.0479C18.9582 11.9716 18.9582 13.4791 18.8 14.6553C18.6382 15.8593 18.3004 16.8093 17.5547 17.555C16.8091 18.3006 15.859 18.6384 14.6551 18.8003C13.4788 18.9584 11.9713 18.9584 10.0476 18.9584H9.95203C8.02836 18.9584 6.52083 18.9584 5.34459 18.8003C4.14065 18.6384 3.19063 18.3006 2.44495 17.555C1.69928 16.8093 1.36149 15.8593 1.19963 14.6553C1.04149 13.4791 1.04149 11.9716 1.0415 10.0479V9.95227C1.04149 8.02861 1.04149 6.52107 1.19963 5.34484C1.36149 4.14089 1.69928 3.19087 2.44495 2.4452C3.19063 1.69952 4.14065 1.36174 5.34459 1.19987C6.52083 1.04173 8.02837 1.04174 9.95202 1.04175ZM5.51115 2.43872C4.44582 2.58195 3.80355 2.85437 3.32883 3.32908C2.85412 3.80379 2.58171 4.44606 2.43848 5.5114C2.29283 6.59471 2.2915 8.01823 2.2915 10.0001C2.2915 11.9819 2.29283 13.4055 2.43848 14.4888C2.58171 15.5541 2.85412 16.1964 3.32883 16.6711C3.80355 17.1458 4.44582 17.4182 5.51115 17.5614C6.59447 17.7071 8.01798 17.7084 9.99984 17.7084C11.9817 17.7084 13.4052 17.7071 14.4885 17.5614C15.5539 17.4182 16.1961 17.1458 16.6708 16.6711C17.1456 16.1964 17.418 15.5541 17.5612 14.4888C17.7068 13.4055 17.7082 11.9819 17.7082 10.0001C17.7082 8.01823 17.7068 6.59471 17.5612 5.5114C17.418 4.44606 17.1456 3.80379 16.6708 3.32908C16.1961 2.85437 15.5539 2.58195 14.4885 2.43872C13.4052 2.29308 11.9817 2.29175 9.99984 2.29175C8.01798 2.29175 6.59447 2.29308 5.51115 2.43872Z" fill="#1DA1F2"/>
</svg>
